<?xml version="1.0" encoding="UTF-8"?><!DOCTYPE svg PUBLIC "-//W3C//DTD SVG 1.1//EN" "http://www.w3.org/Graphics/SVG/1.1/DTD/svg11.dtd"><svg xmlns="http://www.w3.org/2000/svg" xmlns:xlink="http://www.w3.org/1999/xlink"><defs>
        <path id="a" d="M1545 55v2h-15v-2z"/>
        <path id="b" d="M1545 47v2h-24v-2z"/>
        <path id="c" d="M1545 63v2h-24v-2z"/>
    </defs><symbol id="icon-burger" viewBox="0 0 24 18">
    
    <use xlink:href="#a" transform="translate(-1521 -47)"/>
    <use xlink:href="#b" transform="translate(-1521 -47)"/>
    <use xlink:href="#c" transform="translate(-1521 -47)"/>
</symbol><symbol id="icon-play" viewBox="0 0 438.533 438.533">
    <path d="M409.133 109.203c-19.608-33.592-46.205-60.189-79.798-79.796C295.736 9.801 259.058 0 219.273 0c-39.781 0-76.466 9.801-110.063 29.407-33.595 19.604-60.192 46.201-79.8 79.796C9.801 142.8 0 179.489 0 219.267s9.804 76.463 29.407 110.062c19.607 33.585 46.204 60.189 79.799 79.798 33.597 19.605 70.283 29.407 110.063 29.407s76.47-9.802 110.065-29.407c33.593-19.602 60.189-46.206 79.795-79.798 19.603-33.599 29.403-70.287 29.403-110.062.001-39.778-9.8-76.472-29.399-110.064zm-80.229 125.763L173.588 326.33c-2.856 1.711-5.902 2.567-9.136 2.567-3.045 0-6.09-.764-9.135-2.286-6.09-3.614-9.136-8.939-9.136-15.985V127.907c0-7.041 3.046-12.371 9.136-15.987 6.28-3.427 12.369-3.333 18.271.284l155.316 91.36c6.088 3.424 9.134 8.663 9.134 15.703 0 7.041-3.046 12.27-9.134 15.699z"/>
</symbol><symbol id="icon-search" viewBox="0 0 483.083 483.083">
    <path d="M332.74 315.35c30.883-33.433 50.15-78.2 50.15-127.5C382.89 84.433 298.74 0 195.04 0S7.19 84.433 7.19 187.85 91.34 375.7 195.04 375.7c42.217 0 81.033-13.883 112.483-37.4l139.683 139.683c3.4 3.4 7.65 5.1 11.9 5.1s8.783-1.7 11.9-5.1c6.517-6.517 6.517-17.283 0-24.083L332.74 315.35zM41.19 187.85C41.19 103.133 110.04 34 195.04 34c84.717 0 153.85 68.85 153.85 153.85S280.04 341.7 195.04 341.7 41.19 272.567 41.19 187.85z"/>
</symbol><symbol id="icon-sld-arr-l" viewBox="0 0 31.494 31.494">
    <path d="M10.273 5.009a1.112 1.112 0 0 1 1.587 0 1.12 1.12 0 0 1 0 1.571l-8.047 8.047h26.554c.619 0 1.127.492 1.127 1.111s-.508 1.127-1.127 1.127H3.813l8.047 8.032c.429.444.429 1.159 0 1.587a1.112 1.112 0 0 1-1.587 0L.321 16.532a1.12 1.12 0 0 1 0-1.571l9.952-9.952z"/>
</symbol><symbol id="icon-sld-arr-r" viewBox="0 0 31.49 31.49">
    <path d="M21.205 5.007a1.112 1.112 0 0 0-1.587 0 1.12 1.12 0 0 0 0 1.571l8.047 8.047H1.111A1.106 1.106 0 0 0 0 15.737c0 .619.492 1.127 1.111 1.127h26.554l-8.047 8.032c-.429.444-.429 1.159 0 1.587a1.112 1.112 0 0 0 1.587 0l9.952-9.952a1.093 1.093 0 0 0 0-1.571l-9.952-9.953z"/>
</symbol></svg>